<svg width="24" height="25" viewBox="0 0 24 25" fill="none" xmlns="http://www.w3.org/2000/svg">
<path d="M11.999 7.74316C10.7726 7.74316 9.59651 8.23033 8.72934 9.0975C7.86217 9.96467 7.375 11.1408 7.375 12.3672C7.375 13.5935 7.86217 14.7697 8.72934 15.6368C9.59651 16.504 10.7726 16.9912 11.999 16.9912C13.2254 16.9912 14.4015 16.504 15.2687 15.6368C16.1358 14.7697 16.623 13.5935 16.623 12.3672C16.623 11.1408 16.1358 9.96467 15.2687 9.0975C14.4015 8.23033 13.2254 7.74316 11.999 7.74316ZM11.999 15.3702C11.2023 15.3702 10.4382 15.0537 9.87485 14.4903C9.31149 13.927 8.995 13.1629 8.995 12.3662C8.995 11.5695 9.31149 10.8054 9.87485 10.242C10.4382 9.67866 11.2023 9.36216 11.999 9.36216C12.7957 9.36216 13.5598 9.67866 14.1231 10.242C14.6865 10.8054 15.003 11.5695 15.003 12.3662C15.003 13.1629 14.6865 13.927 14.1231 14.4903C13.5598 15.0537 12.7957 15.3702 11.999 15.3702Z" fill="white"/>
<path d="M16.806 8.65112C17.4014 8.65112 17.884 8.16848 17.884 7.57312C17.884 6.97775 17.4014 6.49512 16.806 6.49512C16.2107 6.49512 15.728 6.97775 15.728 7.57312C15.728 8.16848 16.2107 8.65112 16.806 8.65112Z" fill="white"/>
<path d="M20.533 6.47709C20.3015 5.87927 19.9477 5.33638 19.4943 4.88315C19.041 4.42993 18.4979 4.07636 17.9 3.84509C17.2003 3.58245 16.4612 3.44043 15.714 3.42509C14.751 3.38309 14.446 3.37109 12.004 3.37109C9.56201 3.37109 9.24901 3.37109 8.29401 3.42509C7.5474 3.43965 6.80877 3.5817 6.11001 3.84509C5.51195 4.0761 4.96878 4.42956 4.51535 4.88282C4.06192 5.33608 3.70824 5.87912 3.47701 6.47709C3.21432 7.17671 3.07263 7.91593 3.05801 8.66309C3.01501 9.62509 3.00201 9.93009 3.00201 12.3731C3.00201 14.8151 3.00201 15.1261 3.05801 16.0831C3.07301 16.8311 3.21401 17.5691 3.47701 18.2701C3.70889 18.8679 4.06291 19.4107 4.51645 19.8639C4.96999 20.3171 5.51308 20.6707 6.11101 20.9021C6.80845 21.1753 7.54739 21.3275 8.29601 21.3521C9.25901 21.3941 9.56401 21.4071 12.006 21.4071C14.448 21.4071 14.761 21.4071 15.716 21.3521C16.4631 21.3369 17.2022 21.1952 17.902 20.9331C18.4998 20.7013 19.0426 20.3474 19.496 19.8941C19.9493 19.4407 20.3032 18.8979 20.535 18.3001C20.798 17.6001 20.939 16.8621 20.954 16.1141C20.997 15.1521 21.01 14.8471 21.01 12.4041C21.01 9.96109 21.01 9.65109 20.954 8.69409C20.9424 7.93637 20.7999 7.18634 20.533 6.47709ZM19.315 16.0091C19.3086 16.5854 19.2034 17.1563 19.004 17.6971C18.8538 18.086 18.6239 18.4391 18.3291 18.7338C18.0342 19.0285 17.681 19.2581 17.292 19.4081C16.7572 19.6065 16.1924 19.7117 15.622 19.7191C14.672 19.7631 14.404 19.7741 11.968 19.7741C9.53001 19.7741 9.28101 19.7741 8.31301 19.7191C7.74294 19.7121 7.17834 19.6069 6.64401 19.4081C6.2537 19.2591 5.89902 19.0298 5.6029 18.7351C5.30679 18.4403 5.07585 18.0867 4.92501 17.6971C4.72846 17.1621 4.62333 16.5979 4.61401 16.0281C4.57101 15.0781 4.56101 14.8101 4.56101 12.3741C4.56101 9.93709 4.56101 9.68809 4.61401 8.71909C4.62048 8.14312 4.72567 7.57251 4.92501 7.03209C5.23001 6.24309 5.85501 5.62209 6.64401 5.32009C7.1786 5.12223 7.74304 5.01706 8.31301 5.00909C9.26401 4.96609 9.53101 4.95409 11.968 4.95409C14.405 4.95409 14.655 4.95409 15.622 5.00909C16.1924 5.01596 16.7574 5.12117 17.292 5.32009C17.6809 5.47037 18.0342 5.7003 18.329 5.99512C18.6238 6.28995 18.8537 6.64317 19.004 7.03209C19.2006 7.56704 19.3057 8.13125 19.315 8.70109C19.358 9.65209 19.369 9.91909 19.369 12.3561C19.369 14.7921 19.369 15.0541 19.326 16.0101H19.315V16.0091Z" fill="white"/>
</svg>
