<svg width="20" height="15" viewBox="0 0 20 15" fill="none" xmlns="http://www.w3.org/2000/svg">
<path d="M17.9452 3.90002C17.9585 4.05286 17.9585 4.20482 17.9585 4.35679C17.9585 9.00744 13.8337 14.3664 6.29554 14.3664C3.97313 14.3664 1.81559 13.7891 0 12.7865C0.329737 12.8188 0.647262 12.8301 0.99023 12.8301C2.83533 12.834 4.62818 12.3045 6.07979 11.3271C5.22432 11.3138 4.39505 11.0716 3.70775 10.6343C3.02046 10.197 2.50945 9.58639 2.24608 8.88779C2.49949 8.9201 2.75392 8.94194 3.02056 8.94194C3.38795 8.94194 3.75738 8.89827 4.10035 8.82229C3.17195 8.66143 2.33714 8.22958 1.73786 7.60018C1.13857 6.97078 0.811819 6.18268 0.813149 5.36989V5.32622C1.35966 5.58735 1.99369 5.75067 2.66538 5.77251C2.10268 5.45162 1.64128 5.01619 1.32235 4.50507C1.00342 3.99395 0.836875 3.42304 0.837574 2.84325C0.837574 2.18997 1.0401 1.59085 1.39528 1.06858C2.42534 2.15593 3.71006 3.04549 5.16623 3.67963C6.6224 4.31378 8.21755 4.67837 9.84836 4.7498C9.78526 4.48779 9.74659 4.21617 9.74659 3.94369C9.74632 3.48164 9.85217 3.02409 10.0581 2.59717C10.264 2.17025 10.5659 1.78235 10.9467 1.45564C11.3274 1.12893 11.7794 0.869809 12.2769 0.693099C12.7743 0.516389 13.3075 0.425552 13.8459 0.425782C15.0265 0.425782 16.092 0.850236 16.841 1.5367C17.7588 1.3844 18.6389 1.09689 19.4423 0.686917C19.1364 1.49986 18.4956 2.18919 17.6399 2.62578C18.4539 2.54611 19.2494 2.36242 20 2.0808C19.4394 2.7822 18.7447 3.39726 17.9452 3.90002Z" fill="white"/>
</svg>
